<?xml version="1.0" encoding="UTF-8"?>
<svg id="Capa_2" data-name="Capa 2" xmlns="http://www.w3.org/2000/svg" viewBox="0 0 1508.75 1371.88">
  <defs>
    <style>
      .cls-1 {
        fill: #fff;
      }
    </style>
  </defs>
  <path class="cls-1" d="M556.09,333.51v690.28c0,35.45-46.71,48.34-64.89,17.9l-217.91-364.88c-4.99-8.36-6.27-18.42-3.52-27.76l47.44-161.17c4.87-16.55-3.08-34.18-18.71-41.49l-160.58-75.08c-8.83-4.13-15.53-11.76-18.49-21.05L42.57,108.45c-9.47-29.79,21.98-56.06,49.6-41.44l445.33,235.63c11.43,6.05,18.59,17.93,18.59,30.86Z"/>
  <path class="cls-1" d="M956.48,333.51v690.28c0,35.45,46.71,48.34,64.89,17.9l217.91-364.88c4.99-8.36,6.27-18.42,3.52-27.76l-47.44-161.17c-4.87-16.55,3.08-34.18,18.71-41.49l160.58-75.08c8.83-4.13,15.53-11.76,18.49-21.05l76.86-241.82c9.47-29.79-21.98-56.06-49.6-41.44l-445.33,235.63c-11.43,6.05-18.59,17.93-18.59,30.86Z"/>
  <path class="cls-1" d="M859.71,215.72v1080.46c0,26.31-27.99,43.16-51.24,30.86l-137.01-72.5c-11.43-6.05-18.58-17.93-18.58-30.86V143.22c0-26.31,27.99-43.16,51.24-30.86l137.01,72.5c11.43,6.05,18.58,17.93,18.58,30.86Z"/>
</svg>